# xmcd
#
# Track frame offsets:
#	150
#	10421
#	29301
#	46887
#	61207
#	90433
#	101628
#	122246
#	150504
#	170319
#	189509
#
# Disc length: 2724 seconds
#
# Revision: 1
# Processed by: cddbd v1.5.2PL0 Copyright (c) Steve Scherf et al.
# Submitted via: audiograbber 1.83.01
#
DISCID=800aa20b
DTITLE=The Bintangs - THE BINTANGS - Blues On The Ceiling
DYEAR=1969
DGENRE=Blues
TTITLE0=Smokestack Lightning
TTITLE1=Louisiana (Blues)
TTITLE2=Fighting A Losing Battle
TTITLE3=Three Hundred Pounds Of Joy
TTITLE4=Still A Fool
TTITLE5=Little By Little
TTITLE6=Blues With A Feeling
TTITLE7=St. Louis Blues
TTITLE8=My Babe
TTITLE9=Blues On The Ceiling
TTITLE10=It's All Over Now
EXTD=
EXTT0=
EXTT1=
EXTT2=
EXTT3=
EXTT4=
EXTT5=
EXTT6=
EXTT7=
EXTT8=
EXTT9=
EXTT10=
PLAYORDER=
